<svg version="1.1" xmlns="http://www.w3.org/2000/svg" xmlns:xlink="http://www.w3.org/1999/xlink" width="56" height="56" viewBox="0,0,56,56"><g transform="translate(-212,-152)"><g data-paper-data="{&quot;isPaintingLayer&quot;:true}" fill-rule="nonzero" stroke="none" stroke-linecap="butt" stroke-linejoin="miter" stroke-miterlimit="10" stroke-dasharray="" stroke-dashoffset="0" style="mix-blend-mode: normal"><path d="M212,180c0,-15.46398 12.53602,-28 28,-28c15.46398,0 28,12.53602 28,28c0,15.46398 -12.53602,28 -28,28c-15.46398,0 -28,-12.53602 -28,-28zM232.33333,179.83066c1.16065,0.51433 10.69445,7.31356 10.2639,12.37703c-0.59577,9.06629 -12.69813,6.75468 -11.94308,8.30423c1.20931,2.48181 13.99239,2.21944 13.88542,1.22486c-0.0426,-0.39605 5.43815,-1.60286 9.57575,-4.18805c1.68298,-1.05153 4.30949,-3.39223 5.53285,-5.76673c1.28013,-2.4847 1.11881,-4.98268 1.11881,-4.98268c0,0 -7.58981,6.97472 -9.58146,5.0135c-3.02036,-2.97422 -7.28627,-14.78934 -10.43346,-17.85926c-3.06328,-2.98806 -2.77725,0.75618 -6.59496,0.7732c-1.05291,-0.04259 -1.80519,-0.937 -2.92751,-1.17474c-1.49862,-0.31745 -2.51549,1.44871 -3.51645,-0.68126c-0.45782,-0.9742 0.45353,-3.70626 0.45353,-3.79009c0,-1.55984 9.33308,-10.53647 9.33308,-10.53647c0,0 -7.29816,1.95314 -9.83308,3.95314c-0.81522,0.64319 -3.59039,2.90976 -5.33288,5.24867c-2.89128,3.88092 -4.6926,9.87877 -2.86933,11.95353c2.9221,3.32514 6.01451,-2.90631 12.86887,0.13113z" fill="#57b548" stroke-width="none"/><path d="M219.4145,179.69756c-1.82327,-2.07476 -0.01234,-8.10018 2.87894,-11.9811c1.74248,-2.33891 4.53012,-4.61746 5.34535,-5.26065c2.53492,-2 9.86605,-3.86188 9.86605,-3.86188c0,0 -9.30257,8.96199 -9.30257,10.52183c0,0.08383 -0.90472,2.80756 -0.44691,3.78175c1.00097,2.12997 1.93685,0.30546 3.43546,0.62291c1.12231,0.23774 1.87856,1.12784 2.93146,1.17043c3.81771,-0.01702 3.57403,-3.77479 6.63731,-0.78672c3.14719,3.06992 7.37,14.8993 10.39037,17.87351c1.99165,1.96122 9.56911,-4.99269 9.56911,-4.99269c0,0 0.2527,2.537 -1.02743,5.0217c-1.22336,2.3745 -3.86115,4.72877 -5.54412,5.78031c-4.13761,2.5852 -9.63957,3.80254 -9.59697,4.19859c0.10697,0.99457 -12.7078,1.25369 -13.91711,-1.22812c-0.75504,-1.54954 11.3562,0.66797 11.95197,-8.39833c0.43055,-5.06347 -9.14124,-11.8186 -10.30189,-12.33293c-6.85435,-3.03744 -9.94693,3.19653 -12.86903,-0.12861z" data-paper-data="{&quot;noHover&quot;:false,&quot;origItem&quot;:[&quot;Path&quot;,{&quot;applyMatrix&quot;:true,&quot;segments&quot;:[[[232.33333,179.83066],[-6.85435,-3.03744],[1.16065,0.51433]],[[242.59723,192.20769],[0.43055,-5.06347],[-0.59577,9.06629]],[[230.65414,200.51191],[-0.75504,-1.54954],[1.20931,2.48181]],[[244.53957,201.73678],[0.10697,0.99457],[-0.0426,-0.39605]],[[254.11532,197.54872],[-4.13761,2.5852],[1.68298,-1.05153]],[[259.64817,191.78199],[-1.22336,2.3745],[1.28013,-2.4847]],[260.76698,186.79931],[[251.18552,191.81281],[1.99165,1.96122],[-3.02036,-2.97422]],[[240.75205,173.95355],[3.14719,3.06992],[-3.06328,-2.98806]],[[234.1571,174.72675],[3.81771,-0.01702],[-1.05291,-0.04259]],[[231.22959,173.55201],[1.12231,0.23774],[-1.49862,-0.31745]],[[227.71314,172.87075],[1.00097,2.12997],[-0.45782,-0.9742]],[[228.16667,169.08066],[0,0.08383],[0,-1.55984]],[237.49974,158.54419],[[227.66667,162.49732],[2.53492,-2],[-0.81522,0.64319]],[[222.33379,167.746],[1.74248,-2.33891],[-2.89128,3.88092]],[[219.46447,179.69953],[-1.82327,-2.07476],[2.9221,3.32514]]],&quot;closed&quot;:true,&quot;fillColor&quot;:[1,1,1]}]}" fill="#0056ff" stroke-width="0.5"/></g></g></svg>